<mxfile host="Electron" modified="2024-04-06T15:28:52.005Z" agent="Mozilla/5.0 (Windows NT 10.0; Win64; x64) AppleWebKit/537.36 (KHTML, like Gecko) draw.io/24.1.0 Chrome/120.0.6099.109 Electron/28.1.0 Safari/537.36" etag="4mXvMLy4RnmN8pUHhO8w" version="24.1.0" type="device">
  <diagram name="Página-1" id="lfljVjLXqVkdalrhsPDu">
    <mxGraphModel dx="2247" dy="830" grid="1" gridSize="10" guides="1" tooltips="1" connect="1" arrows="1" fold="1" page="1" pageScale="1" pageWidth="827" pageHeight="1169" background="#CCE5FF" math="0" shadow="0">
      <root>
        <mxCell id="0" />
        <mxCell id="1" parent="0" />
        <mxCell id="rmCvbukI7HfnYhg2oPh5-1" value="&lt;font color=&quot;#000000&quot; style=&quot;font-size: 16px;&quot; face=&quot;Comic Sans MS&quot;&gt;&lt;b&gt;9 Hacer un programa para ingresar una lista de 10 números, luego informar el máximo.&lt;br&gt;&lt;br&gt;Ejemplo A: 5, 10, 20, 8, 25, 13, 35, -8, -5, 20. Se listará Máximo 35.&lt;br&gt;Ejemplo B: 5, 10, 20, 8, 55, 13, 55, -8, -5, 20. Se listará Máximo 55.&lt;br&gt;Ejemplo C: -15, -10, -20, -8, -25, -13, -55, -6, -55, -20. Se listará Máximo -6&lt;br&gt;El tercer ejemplo demuestra que NO SIEMPRE en una lista de números el máximo es un&amp;nbsp; positivo.&lt;br&gt;Para resolver este ejercicio sugerimos resolver antes el TP2 EJ 9 y TP2 EJ 10.&lt;/b&gt;&lt;/font&gt;" style="text;whiteSpace=wrap;html=1;fontFamily=Architects Daughter;fontSource=https%3A%2F%2Ffonts.googleapis.com%2Fcss%3Ffamily%3DArchitects%2BDaughter;" vertex="1" parent="1">
          <mxGeometry x="70" y="10" width="740" height="200" as="geometry" />
        </mxCell>
        <mxCell id="rmCvbukI7HfnYhg2oPh5-67" value="" style="group;aspect=fixed;" vertex="1" connectable="0" parent="1">
          <mxGeometry x="-60" y="240" width="695" height="830" as="geometry" />
        </mxCell>
        <mxCell id="rmCvbukI7HfnYhg2oPh5-42" value="" style="group;aspect=fixed;" vertex="1" connectable="0" parent="rmCvbukI7HfnYhg2oPh5-67">
          <mxGeometry width="695" height="830" as="geometry" />
        </mxCell>
        <mxCell id="rmCvbukI7HfnYhg2oPh5-6" value="" style="group;aspect=fixed;" vertex="1" connectable="0" parent="rmCvbukI7HfnYhg2oPh5-42">
          <mxGeometry x="400" width="50" height="50" as="geometry" />
        </mxCell>
        <mxCell id="rmCvbukI7HfnYhg2oPh5-2" value="" style="strokeWidth=2;html=1;shape=mxgraph.flowchart.start_2;whiteSpace=wrap;rounded=0;labelBackgroundColor=none;strokeColor=#000000;align=center;verticalAlign=middle;fontFamily=Helvetica;fontSize=12;fontColor=default;fillColor=#d5e8d4;aspect=fixed;" vertex="1" parent="rmCvbukI7HfnYhg2oPh5-6">
          <mxGeometry width="50" height="50" as="geometry" />
        </mxCell>
        <mxCell id="rmCvbukI7HfnYhg2oPh5-4" value="&lt;font color=&quot;#000000&quot; size=&quot;1&quot; face=&quot;Comic Sans MS&quot;&gt;&lt;b style=&quot;font-size: 20px;&quot;&gt;I&lt;/b&gt;&lt;/font&gt;" style="text;strokeColor=none;align=center;fillColor=none;html=1;verticalAlign=middle;whiteSpace=wrap;rounded=0;fontFamily=Architects Daughter;fontSource=https%3A%2F%2Ffonts.googleapis.com%2Fcss%3Ffamily%3DArchitects%2BDaughter;aspect=fixed;" vertex="1" parent="rmCvbukI7HfnYhg2oPh5-6">
          <mxGeometry x="5" y="10" width="40" height="30" as="geometry" />
        </mxCell>
        <mxCell id="rmCvbukI7HfnYhg2oPh5-8" value="" style="group;aspect=fixed;" vertex="1" connectable="0" parent="rmCvbukI7HfnYhg2oPh5-42">
          <mxGeometry x="399" y="780" width="50" height="50" as="geometry" />
        </mxCell>
        <mxCell id="rmCvbukI7HfnYhg2oPh5-3" value="" style="strokeWidth=2;html=1;shape=mxgraph.flowchart.start_2;whiteSpace=wrap;rounded=0;labelBackgroundColor=none;strokeColor=#000000;align=center;verticalAlign=middle;fontFamily=Helvetica;fontSize=12;fontColor=default;fillColor=#d5e8d4;" vertex="1" parent="rmCvbukI7HfnYhg2oPh5-8">
          <mxGeometry width="50" height="50" as="geometry" />
        </mxCell>
        <mxCell id="rmCvbukI7HfnYhg2oPh5-5" value="&lt;font color=&quot;#000000&quot; size=&quot;1&quot; face=&quot;Comic Sans MS&quot;&gt;&lt;b style=&quot;font-size: 20px;&quot;&gt;F&lt;/b&gt;&lt;/font&gt;" style="text;strokeColor=none;align=center;fillColor=none;html=1;verticalAlign=middle;whiteSpace=wrap;rounded=0;fontFamily=Architects Daughter;fontSource=https://fonts.googleapis.com/css?family=Architects+Daughter;" vertex="1" parent="rmCvbukI7HfnYhg2oPh5-8">
          <mxGeometry x="5" y="10" width="40" height="30" as="geometry" />
        </mxCell>
        <mxCell id="rmCvbukI7HfnYhg2oPh5-9" value="" style="group;aspect=fixed;" vertex="1" connectable="0" parent="rmCvbukI7HfnYhg2oPh5-42">
          <mxGeometry y="100" width="695" height="556" as="geometry" />
        </mxCell>
        <mxCell id="rmCvbukI7HfnYhg2oPh5-10" value="" style="whiteSpace=wrap;html=1;aspect=fixed;rounded=0;labelBackgroundColor=none;strokeColor=#000000;strokeWidth=2;align=center;verticalAlign=middle;fontFamily=Helvetica;fontSize=12;fontColor=default;fillColor=#d5e8d4;" vertex="1" parent="rmCvbukI7HfnYhg2oPh5-9">
          <mxGeometry x="139" width="556" height="556" as="geometry" />
        </mxCell>
        <mxCell id="rmCvbukI7HfnYhg2oPh5-11" value="" style="group;aspect=fixed;" vertex="1" connectable="0" parent="rmCvbukI7HfnYhg2oPh5-9">
          <mxGeometry x="13.900000000000006" y="41.70000000000002" width="250.20000000000005" height="250.20000000000005" as="geometry" />
        </mxCell>
        <mxCell id="rmCvbukI7HfnYhg2oPh5-12" value="" style="ellipse;whiteSpace=wrap;html=1;aspect=fixed;rounded=0;labelBackgroundColor=none;strokeColor=#0F140C;strokeWidth=3;align=center;verticalAlign=middle;fontFamily=Helvetica;fontSize=12;fontColor=default;fillColor=#d5e8d4;" vertex="1" parent="rmCvbukI7HfnYhg2oPh5-11">
          <mxGeometry width="250.20000000000005" height="250.20000000000005" as="geometry" />
        </mxCell>
        <mxCell id="rmCvbukI7HfnYhg2oPh5-13" value="" style="endArrow=none;html=1;rounded=0;strokeColor=#0F140C;fontFamily=Helvetica;fontSize=12;fontColor=default;fillColor=#B2C9AB;strokeWidth=2;" edge="1" parent="rmCvbukI7HfnYhg2oPh5-11">
          <mxGeometry width="50" height="50" relative="1" as="geometry">
            <mxPoint x="240.192" y="70.05600000000001" as="sourcePoint" />
            <mxPoint x="10.008000000000003" y="70.05600000000001" as="targetPoint" />
          </mxGeometry>
        </mxCell>
        <mxCell id="rmCvbukI7HfnYhg2oPh5-14" value="" style="endArrow=none;html=1;rounded=0;strokeColor=#0F140C;fontFamily=Helvetica;fontSize=12;fontColor=default;fillColor=#B2C9AB;exitX=0.264;exitY=0.952;exitDx=0;exitDy=0;exitPerimeter=0;strokeWidth=2;" edge="1" parent="rmCvbukI7HfnYhg2oPh5-11" source="rmCvbukI7HfnYhg2oPh5-12">
          <mxGeometry width="50" height="50" relative="1" as="geometry">
            <mxPoint x="60.048" y="150.12" as="sourcePoint" />
            <mxPoint x="70.05600000000001" y="70.05600000000001" as="targetPoint" />
          </mxGeometry>
        </mxCell>
        <mxCell id="rmCvbukI7HfnYhg2oPh5-15" value="" style="endArrow=none;html=1;rounded=0;strokeColor=#0F140C;fontFamily=Helvetica;fontSize=12;fontColor=default;fillColor=#B2C9AB;exitX=0.728;exitY=0.948;exitDx=0;exitDy=0;exitPerimeter=0;strokeWidth=2;" edge="1" parent="rmCvbukI7HfnYhg2oPh5-11" source="rmCvbukI7HfnYhg2oPh5-12">
          <mxGeometry width="50" height="50" relative="1" as="geometry">
            <mxPoint x="150.12" y="170.13600000000005" as="sourcePoint" />
            <mxPoint x="182.1456" y="70.05600000000001" as="targetPoint" />
          </mxGeometry>
        </mxCell>
        <mxCell id="rmCvbukI7HfnYhg2oPh5-19" value="&lt;font color=&quot;#000000&quot; size=&quot;1&quot; face=&quot;Comic Sans MS&quot;&gt;&lt;b style=&quot;font-size: 20px;&quot;&gt;x&lt;/b&gt;&lt;/font&gt;" style="text;strokeColor=none;align=center;fillColor=none;html=1;verticalAlign=middle;whiteSpace=wrap;rounded=0;fontFamily=Architects Daughter;fontSource=https://fonts.googleapis.com/css?family=Architects+Daughter;" vertex="1" parent="rmCvbukI7HfnYhg2oPh5-11">
          <mxGeometry x="95.1" y="28.299999999999955" width="60" height="30" as="geometry" />
        </mxCell>
        <mxCell id="rmCvbukI7HfnYhg2oPh5-24" value="&lt;font color=&quot;#000000&quot; size=&quot;1&quot; face=&quot;Comic Sans MS&quot;&gt;&lt;b style=&quot;font-size: 17px;&quot;&gt;x++&lt;/b&gt;&lt;/font&gt;" style="text;strokeColor=none;align=center;fillColor=none;html=1;verticalAlign=middle;whiteSpace=wrap;rounded=0;fontFamily=Architects Daughter;fontSource=https://fonts.googleapis.com/css?family=Architects+Daughter;" vertex="1" parent="rmCvbukI7HfnYhg2oPh5-11">
          <mxGeometry x="189.1" y="128.29999999999995" width="50" height="20" as="geometry" />
        </mxCell>
        <mxCell id="rmCvbukI7HfnYhg2oPh5-20" value="" style="group;aspect=fixed;" vertex="1" connectable="0" parent="rmCvbukI7HfnYhg2oPh5-9">
          <mxGeometry x="350" y="120" width="140" height="40" as="geometry" />
        </mxCell>
        <mxCell id="rmCvbukI7HfnYhg2oPh5-16" value="" style="shape=trapezoid;perimeter=trapezoidPerimeter;whiteSpace=wrap;html=1;fixedSize=1;rounded=0;labelBackgroundColor=none;strokeColor=#121211;strokeWidth=2;align=center;verticalAlign=middle;fontFamily=Helvetica;fontSize=12;fontColor=default;fillColor=#d5e8d4;direction=west;container=0;" vertex="1" parent="rmCvbukI7HfnYhg2oPh5-20">
          <mxGeometry width="140" height="40" as="geometry">
            <mxRectangle x="-1020" y="-650" width="50" height="40" as="alternateBounds" />
          </mxGeometry>
        </mxCell>
        <mxCell id="rmCvbukI7HfnYhg2oPh5-17" value="&lt;font color=&quot;#000000&quot; size=&quot;1&quot; face=&quot;Comic Sans MS&quot;&gt;&lt;b style=&quot;font-size: 17px;&quot;&gt;num&lt;/b&gt;&lt;/font&gt;" style="text;strokeColor=none;align=center;fillColor=none;html=1;verticalAlign=middle;whiteSpace=wrap;rounded=0;fontFamily=Architects Daughter;fontSource=https%3A%2F%2Ffonts.googleapis.com%2Fcss%3Ffamily%3DArchitects%2BDaughter;container=0;" vertex="1" parent="rmCvbukI7HfnYhg2oPh5-20">
          <mxGeometry x="40" y="5" width="60" height="30" as="geometry" />
        </mxCell>
        <mxCell id="rmCvbukI7HfnYhg2oPh5-32" value="" style="group;aspect=fixed;" vertex="1" connectable="0" parent="rmCvbukI7HfnYhg2oPh5-9">
          <mxGeometry x="360" y="200" width="120" height="110" as="geometry" />
        </mxCell>
        <mxCell id="rmCvbukI7HfnYhg2oPh5-29" value="" style="rhombus;whiteSpace=wrap;html=1;rounded=0;labelBackgroundColor=none;strokeColor=#0F140C;strokeWidth=2;align=center;verticalAlign=middle;fontFamily=Helvetica;fontSize=12;fontColor=default;fillColor=#d5e8d4;" vertex="1" parent="rmCvbukI7HfnYhg2oPh5-32">
          <mxGeometry width="120" height="110" as="geometry" />
        </mxCell>
        <mxCell id="rmCvbukI7HfnYhg2oPh5-30" value="&lt;font face=&quot;Comic Sans MS&quot; color=&quot;#000000&quot;&gt;&lt;span style=&quot;font-size: 15px;&quot;&gt;&lt;b&gt;x == 0&lt;/b&gt;&lt;/span&gt;&lt;/font&gt;" style="text;strokeColor=none;align=center;fillColor=none;html=1;verticalAlign=middle;whiteSpace=wrap;rounded=0;fontFamily=Architects Daughter;fontSource=https://fonts.googleapis.com/css?family=Architects+Daughter;" vertex="1" parent="rmCvbukI7HfnYhg2oPh5-32">
          <mxGeometry x="32" y="30" width="60" height="50" as="geometry" />
        </mxCell>
        <mxCell id="rmCvbukI7HfnYhg2oPh5-48" value="" style="line;strokeWidth=2;direction=south;html=1;hachureGap=4;fontFamily=Architects Daughter;fontSource=https://fonts.googleapis.com/css?family=Architects+Daughter;strokeColor=#000000;" vertex="1" parent="rmCvbukI7HfnYhg2oPh5-9">
          <mxGeometry x="415" y="160" width="10" height="40" as="geometry" />
        </mxCell>
        <mxCell id="rmCvbukI7HfnYhg2oPh5-58" value="" style="line;strokeWidth=2;html=1;perimeter=backbonePerimeter;points=[];outlineConnect=0;hachureGap=4;fontFamily=Architects Daughter;fontSource=https://fonts.googleapis.com/css?family=Architects+Daughter;strokeColor=#000000;" vertex="1" parent="rmCvbukI7HfnYhg2oPh5-9">
          <mxGeometry x="320" y="250" width="40" height="10" as="geometry" />
        </mxCell>
        <mxCell id="rmCvbukI7HfnYhg2oPh5-59" value="" style="line;strokeWidth=2;html=1;perimeter=backbonePerimeter;points=[];outlineConnect=0;hachureGap=4;fontFamily=Architects Daughter;fontSource=https://fonts.googleapis.com/css?family=Architects+Daughter;strokeColor=#000000;" vertex="1" parent="rmCvbukI7HfnYhg2oPh5-9">
          <mxGeometry x="480" y="250" width="60" height="10" as="geometry" />
        </mxCell>
        <mxCell id="rmCvbukI7HfnYhg2oPh5-50" value="" style="line;strokeWidth=2;direction=south;html=1;hachureGap=4;fontFamily=Architects Daughter;fontSource=https://fonts.googleapis.com/css?family=Architects+Daughter;strokeColor=#000000;" vertex="1" parent="rmCvbukI7HfnYhg2oPh5-9">
          <mxGeometry x="530" y="250" width="10" height="70" as="geometry" />
        </mxCell>
        <mxCell id="rmCvbukI7HfnYhg2oPh5-57" value="" style="line;strokeWidth=2;html=1;perimeter=backbonePerimeter;points=[];outlineConnect=0;hachureGap=4;fontFamily=Architects Daughter;fontSource=https://fonts.googleapis.com/css?family=Architects+Daughter;strokeColor=#000000;" vertex="1" parent="rmCvbukI7HfnYhg2oPh5-9">
          <mxGeometry x="425" y="370" width="50" height="10" as="geometry" />
        </mxCell>
        <mxCell id="rmCvbukI7HfnYhg2oPh5-64" value="" style="line;strokeWidth=2;html=1;perimeter=backbonePerimeter;points=[];outlineConnect=0;hachureGap=4;fontFamily=Architects Daughter;fontSource=https://fonts.googleapis.com/css?family=Architects+Daughter;strokeColor=#000000;" vertex="1" parent="rmCvbukI7HfnYhg2oPh5-9">
          <mxGeometry x="590" y="370" width="50" height="10" as="geometry" />
        </mxCell>
        <mxCell id="rmCvbukI7HfnYhg2oPh5-18" value="&lt;font color=&quot;#000000&quot; size=&quot;1&quot; face=&quot;Comic Sans MS&quot;&gt;&lt;b style=&quot;font-size: 16px;&quot;&gt;x = 0&lt;/b&gt;&lt;/font&gt;" style="text;strokeColor=none;align=center;fillColor=none;html=1;verticalAlign=middle;whiteSpace=wrap;rounded=0;fontFamily=Architects Daughter;fontSource=https://fonts.googleapis.com/css?family=Architects+Daughter;" vertex="1" parent="rmCvbukI7HfnYhg2oPh5-42">
          <mxGeometry x="25" y="269" width="50" height="20" as="geometry" />
        </mxCell>
        <mxCell id="rmCvbukI7HfnYhg2oPh5-23" value="&lt;font color=&quot;#000000&quot; size=&quot;1&quot; face=&quot;Comic Sans MS&quot;&gt;&lt;b style=&quot;font-size: 16px;&quot;&gt;x &amp;lt; 10&lt;/b&gt;&lt;/font&gt;" style="text;strokeColor=none;align=center;fillColor=none;html=1;verticalAlign=middle;whiteSpace=wrap;rounded=0;fontFamily=Architects Daughter;fontSource=https://fonts.googleapis.com/css?family=Architects+Daughter;" vertex="1" parent="rmCvbukI7HfnYhg2oPh5-42">
          <mxGeometry x="107" y="270" width="60" height="20" as="geometry" />
        </mxCell>
        <mxCell id="rmCvbukI7HfnYhg2oPh5-31" value="" style="group;aspect=fixed;" vertex="1" connectable="0" parent="rmCvbukI7HfnYhg2oPh5-42">
          <mxGeometry x="474" y="420" width="120" height="110" as="geometry" />
        </mxCell>
        <mxCell id="rmCvbukI7HfnYhg2oPh5-25" value="" style="rhombus;whiteSpace=wrap;html=1;rounded=0;labelBackgroundColor=none;strokeColor=#0F140C;strokeWidth=2;align=center;verticalAlign=middle;fontFamily=Helvetica;fontSize=12;fontColor=default;fillColor=#d5e8d4;aspect=fixed;" vertex="1" parent="rmCvbukI7HfnYhg2oPh5-31">
          <mxGeometry width="120" height="110" as="geometry" />
        </mxCell>
        <mxCell id="rmCvbukI7HfnYhg2oPh5-28" value="&lt;font color=&quot;#000000&quot; size=&quot;1&quot; face=&quot;Comic Sans MS&quot;&gt;&lt;b style=&quot;font-size: 16px;&quot;&gt;num&lt;/b&gt;&lt;/font&gt;&lt;div&gt;&lt;font color=&quot;#000000&quot; size=&quot;1&quot; face=&quot;Comic Sans MS&quot;&gt;&lt;b style=&quot;font-size: 16px;&quot;&gt;&amp;gt;&lt;/b&gt;&lt;/font&gt;&lt;/div&gt;&lt;div&gt;&lt;font color=&quot;#000000&quot; size=&quot;1&quot; face=&quot;Comic Sans MS&quot;&gt;&lt;b style=&quot;font-size: 16px;&quot;&gt;maximo&lt;/b&gt;&lt;/font&gt;&lt;/div&gt;" style="text;strokeColor=none;align=center;fillColor=none;html=1;verticalAlign=middle;whiteSpace=wrap;rounded=0;fontFamily=Architects Daughter;fontSource=https://fonts.googleapis.com/css?family=Architects+Daughter;aspect=fixed;" vertex="1" parent="rmCvbukI7HfnYhg2oPh5-31">
          <mxGeometry x="30" y="40" width="60" height="30" as="geometry" />
        </mxCell>
        <mxCell id="rmCvbukI7HfnYhg2oPh5-37" value="" style="group;aspect=fixed;" vertex="1" connectable="0" parent="rmCvbukI7HfnYhg2oPh5-42">
          <mxGeometry x="270" y="412" width="120" height="40" as="geometry" />
        </mxCell>
        <mxCell id="rmCvbukI7HfnYhg2oPh5-26" value="" style="rounded=0;whiteSpace=wrap;html=1;labelBackgroundColor=none;strokeColor=#0f100e;strokeWidth=2;align=center;verticalAlign=middle;fontFamily=Helvetica;fontSize=12;fontColor=default;fillColor=#d5e8d4;" vertex="1" parent="rmCvbukI7HfnYhg2oPh5-37">
          <mxGeometry width="120" height="40" as="geometry" />
        </mxCell>
        <mxCell id="rmCvbukI7HfnYhg2oPh5-33" value="&lt;font size=&quot;1&quot; face=&quot;Comic Sans MS&quot; color=&quot;#000000&quot;&gt;&lt;b style=&quot;font-size: 15px;&quot;&gt;maximo = num&lt;/b&gt;&lt;/font&gt;" style="text;strokeColor=none;align=center;fillColor=none;html=1;verticalAlign=middle;whiteSpace=wrap;rounded=0;fontFamily=Architects Daughter;fontSource=https://fonts.googleapis.com/css?family=Architects+Daughter;" vertex="1" parent="rmCvbukI7HfnYhg2oPh5-37">
          <mxGeometry y="5" width="120" height="30" as="geometry" />
        </mxCell>
        <mxCell id="rmCvbukI7HfnYhg2oPh5-38" value="" style="group;aspect=fixed;" vertex="1" connectable="0" parent="rmCvbukI7HfnYhg2oPh5-42">
          <mxGeometry x="364" y="516" width="120" height="40" as="geometry" />
        </mxCell>
        <mxCell id="rmCvbukI7HfnYhg2oPh5-35" value="" style="rounded=0;whiteSpace=wrap;html=1;labelBackgroundColor=none;strokeColor=#0f100e;strokeWidth=2;align=center;verticalAlign=middle;fontFamily=Helvetica;fontSize=12;fontColor=default;fillColor=#d5e8d4;" vertex="1" parent="rmCvbukI7HfnYhg2oPh5-38">
          <mxGeometry width="120" height="40" as="geometry" />
        </mxCell>
        <mxCell id="rmCvbukI7HfnYhg2oPh5-36" value="&lt;font size=&quot;1&quot; face=&quot;Comic Sans MS&quot; color=&quot;#000000&quot;&gt;&lt;b style=&quot;font-size: 15px;&quot;&gt;maximo = num&lt;/b&gt;&lt;/font&gt;" style="text;strokeColor=none;align=center;fillColor=none;html=1;verticalAlign=middle;whiteSpace=wrap;rounded=0;fontFamily=Architects Daughter;fontSource=https://fonts.googleapis.com/css?family=Architects+Daughter;" vertex="1" parent="rmCvbukI7HfnYhg2oPh5-38">
          <mxGeometry y="5" width="120" height="30" as="geometry" />
        </mxCell>
        <mxCell id="rmCvbukI7HfnYhg2oPh5-41" value="" style="group;aspect=fixed;" vertex="1" connectable="0" parent="rmCvbukI7HfnYhg2oPh5-42">
          <mxGeometry x="350" y="700" width="150" height="40" as="geometry" />
        </mxCell>
        <mxCell id="rmCvbukI7HfnYhg2oPh5-39" value="" style="shape=trapezoid;perimeter=trapezoidPerimeter;whiteSpace=wrap;html=1;fixedSize=1;rounded=0;labelBackgroundColor=none;strokeColor=#0F140C;strokeWidth=2;align=center;verticalAlign=middle;fontFamily=Helvetica;fontSize=12;fontColor=default;fillColor=#d5e8d4;" vertex="1" parent="rmCvbukI7HfnYhg2oPh5-41">
          <mxGeometry width="150" height="40" as="geometry" />
        </mxCell>
        <mxCell id="rmCvbukI7HfnYhg2oPh5-40" value="&lt;font size=&quot;1&quot; face=&quot;Comic Sans MS&quot; color=&quot;#000000&quot;&gt;&lt;b style=&quot;font-size: 16px;&quot;&gt;maximo&lt;/b&gt;&lt;/font&gt;" style="text;strokeColor=none;align=center;fillColor=none;html=1;verticalAlign=middle;whiteSpace=wrap;rounded=0;fontFamily=Architects Daughter;fontSource=https%3A%2F%2Ffonts.googleapis.com%2Fcss%3Ffamily%3DArchitects%2BDaughter;" vertex="1" parent="rmCvbukI7HfnYhg2oPh5-41">
          <mxGeometry x="46" y="5" width="60" height="30" as="geometry" />
        </mxCell>
        <mxCell id="rmCvbukI7HfnYhg2oPh5-46" value="" style="line;strokeWidth=2;direction=south;html=1;hachureGap=4;fontFamily=Architects Daughter;fontSource=https://fonts.googleapis.com/css?family=Architects+Daughter;strokeColor=#000000;" vertex="1" parent="rmCvbukI7HfnYhg2oPh5-42">
          <mxGeometry x="420" y="50" width="10" height="50" as="geometry" />
        </mxCell>
        <mxCell id="rmCvbukI7HfnYhg2oPh5-52" value="" style="line;strokeWidth=2;direction=south;html=1;hachureGap=4;fontFamily=Architects Daughter;fontSource=https://fonts.googleapis.com/css?family=Architects+Daughter;strokeColor=#000000;" vertex="1" parent="rmCvbukI7HfnYhg2oPh5-42">
          <mxGeometry x="419" y="656" width="10" height="44" as="geometry" />
        </mxCell>
        <mxCell id="rmCvbukI7HfnYhg2oPh5-51" value="" style="line;strokeWidth=2;direction=south;html=1;hachureGap=4;fontFamily=Architects Daughter;fontSource=https://fonts.googleapis.com/css?family=Architects+Daughter;strokeColor=#000000;" vertex="1" parent="rmCvbukI7HfnYhg2oPh5-42">
          <mxGeometry x="420" y="740" width="10" height="40" as="geometry" />
        </mxCell>
        <mxCell id="rmCvbukI7HfnYhg2oPh5-44" value="" style="line;strokeWidth=2;direction=south;html=1;hachureGap=4;fontFamily=Architects Daughter;fontSource=https://fonts.googleapis.com/css?family=Architects+Daughter;strokeColor=#000000;" vertex="1" parent="rmCvbukI7HfnYhg2oPh5-67">
          <mxGeometry x="421" y="554" width="10" height="36" as="geometry" />
        </mxCell>
        <mxCell id="rmCvbukI7HfnYhg2oPh5-45" value="" style="line;strokeWidth=2;direction=south;html=1;hachureGap=4;fontFamily=Architects Daughter;fontSource=https://fonts.googleapis.com/css?family=Architects+Daughter;strokeColor=#000000;" vertex="1" parent="rmCvbukI7HfnYhg2oPh5-67">
          <mxGeometry x="317" y="353" width="10" height="57" as="geometry" />
        </mxCell>
        <mxCell id="rmCvbukI7HfnYhg2oPh5-47" value="" style="line;strokeWidth=2;direction=south;html=1;hachureGap=4;fontFamily=Architects Daughter;fontSource=https://fonts.googleapis.com/css?family=Architects+Daughter;strokeColor=#000000;" vertex="1" parent="rmCvbukI7HfnYhg2oPh5-67">
          <mxGeometry x="634" y="474" width="10" height="116" as="geometry" />
        </mxCell>
        <mxCell id="rmCvbukI7HfnYhg2oPh5-49" value="" style="line;strokeWidth=2;direction=south;html=1;hachureGap=4;fontFamily=Architects Daughter;fontSource=https://fonts.googleapis.com/css?family=Architects+Daughter;strokeColor=#000000;" vertex="1" parent="rmCvbukI7HfnYhg2oPh5-67">
          <mxGeometry x="420" y="475" width="10" height="45" as="geometry" />
        </mxCell>
        <mxCell id="rmCvbukI7HfnYhg2oPh5-56" value="" style="line;strokeWidth=2;html=1;perimeter=backbonePerimeter;points=[];outlineConnect=0;hachureGap=4;fontFamily=Architects Daughter;fontSource=https://fonts.googleapis.com/css?family=Architects+Daughter;strokeColor=#000000;" vertex="1" parent="rmCvbukI7HfnYhg2oPh5-67">
          <mxGeometry x="425" y="584" width="215" height="10" as="geometry" />
        </mxCell>
      </root>
    </mxGraphModel>
  </diagram>
</mxfile>
